<svg xmlns="http://www.w3.org/2000/svg" viewBox="0 0 120 140" fill="none" aria-hidden="true">
  <line x1="60" y1="128" x2="60" y2="24" stroke="#E97358" stroke-width="1.75" stroke-linecap="round"/>
  <path d="M60 98 Q44 88 30 80" stroke="#E97358" stroke-width="1.75" stroke-linecap="round" fill="none"/>
  <path d="M60 98 Q76 88 90 80" stroke="#E97358" stroke-width="1.75" stroke-linecap="round" fill="none"/>
  <path d="M60 78 Q40 66 22 56" stroke="#E97358" stroke-width="1.75" stroke-linecap="round" fill="none"/>
  <path d="M60 78 Q80 66 98 56" stroke="#E97358" stroke-width="1.75" stroke-linecap="round" fill="none"/>
  <path d="M60 56 Q36 44 16 34" stroke="#E97358" stroke-width="1.75" stroke-linecap="round" fill="none"/>
  <path d="M60 56 Q84 44 104 34" stroke="#E97358" stroke-width="1.75" stroke-linecap="round" fill="none"/>
  <circle cx="60" cy="16" r="9" stroke="#E97358" stroke-width="1.5" fill="none" opacity="0.55"/>
  <circle cx="60" cy="16" r="4.5" fill="#E97358"/>
  <circle cx="30" cy="80" r="4.5" fill="#E97358"/>
  <circle cx="90" cy="80" r="4.5" fill="#E97358"/>
  <circle cx="22" cy="56" r="4.5" fill="#E97358"/>
  <circle cx="98" cy="56" r="4.5" fill="#E97358"/>
  <circle cx="16" cy="34" r="4.5" fill="#E97358"/>
  <circle cx="104" cy="34" r="4.5" fill="#E97358"/>
</svg>
