<svg width="145" height="110" viewBox="0 0 145 110" fill="none" xmlns="http://www.w3.org/2000/svg">
<path d="M70.625 103L62.125 65.5M107.625 70.5C91.8478 76.2957 78.761 87.7043 70.8677 102.544L70.625 103L57.125 92.75L43.625 82.5M107.625 70.5L116.625 51M107.625 70.5C116.129 70.5 124.471 68.1721 131.747 63.7686L139.625 59M107.625 70.5C99.7823 65.0704 96.0617 55.3942 98.2464 46.1089L100.625 36M114.125 21C118.321 29.0696 119.512 38.368 117.486 47.2348L116.625 51M62.125 65.5L46.5378 38.6754C42.7708 32.1927 36.4516 27.5927 29.125 26M62.125 65.5L75.8426 56.6815C83.5455 51.7297 85.3999 41.2668 79.8679 33.9694L79.0423 32.8802C72.9472 24.84 76.5534 13.1905 86.125 10M62.125 65.5L57.1926 33.2752C55.5784 22.729 59.0808 12.0442 66.625 4.5M43.625 82.5L26.8466 84.1594C12.8529 85.5434 1.71447 72.6421 5.125 59M43.625 82.5L30.6402 72.4007C22.0117 65.6897 17.7781 54.7739 19.625 44M116.625 51L119.393 50.2249C132.287 46.6147 140.785 34.3389 139.625 21" stroke="#131313" stroke-width="9" stroke-linecap="round"/>
</svg>
